<svg t="1603161058836" class="icon" viewBox="0 0 1024 1024" version="1.1" xmlns="http://www.w3.org/2000/svg" p-id="3282" width="32" height="32"><path d="M200.32 556.16l-32 32a18.24 18.24 0 0 1-25.28 0L64 507.2a17.28 17.28 0 0 1 0-24.96l32-32a17.92 17.92 0 0 1 25.28 0l8.32 7.68 72.32 72.32a18.88 18.88 0 0 1-1.6 25.92z" fill="#E05E05" p-id="3283"></path><path d="M899.84 457.6l-71.04 71.04-64-64v361.28a58.88 58.88 0 0 1-58.56 58.88H317.44a59.2 59.2 0 0 1-58.88-58.88V464.64l-64 64-71.04-71.04 124.8-125.12 27.52-27.2A57.6 57.6 0 0 1 317.44 288h388.48a56.96 56.96 0 0 1 40.64 16.96l27.52 27.2zM747.2 305.28z" fill="#FF8827" p-id="3284"></path><path d="M964.48 506.56l-80.64 80.64a17.92 17.92 0 0 1-24.96 0l-32-32a18.88 18.88 0 0 1 0-25.6l79.04-78.72a16.96 16.96 0 0 1 24.96 0l32 32a17.92 17.92 0 0 1 1.6 23.68z" fill="#E05E05" p-id="3285"></path><path d="M672 259.52a164.48 164.48 0 1 0-328.64 0 162.24 162.24 0 0 0 59.52 128l4.16 3.2 81.6 70.4a40.64 40.64 0 0 0 27.84 10.56 43.52 43.52 0 0 0 32-14.72 42.24 42.24 0 0 0 8.96-40.96A164.16 164.16 0 0 0 672 259.52z m-164.48 78.72a77.44 77.44 0 0 1-47.68-16.32 78.4 78.4 0 1 1 47.68 16.32z" fill="#F77721" p-id="3286"></path><path d="M506.88 259.52m-78.4 0a78.4 78.4 0 1 0 156.8 0 78.4 78.4 0 1 0-156.8 0Z" fill="#E05E05" p-id="3287"></path></svg>