<svg t="1603163474474" class="icon" viewBox="0 0 1024 1024" version="1.1" xmlns="http://www.w3.org/2000/svg" p-id="795" width="32" height="32"><path d="M772.170462 772.499549l-34.688175 34.690208 34.688175 34.690208 34.690208 34.688175 34.690208-34.688175 34.688176-34.690208-34.688176-34.690208-34.690208-34.688176z" fill="#ECF4F7" p-id="796"></path><path d="M702.792079 689.244676c-5.20343 5.20343-8.67306 10.406859-13.87649 13.876489-46.830866 43.361236-109.272021 69.378383-176.916605 69.378384-143.962229 0-260.171479-116.20925-260.171479-260.171479s116.20925-260.171479 260.171479-260.171479 260.171479 116.20925 260.171478 260.171479c0 67.644584-26.017148 130.085739-69.378383 176.916606" fill="#FFE079" p-id="797"></path><path d="M303.861801 1024h-3.469631c-3.469631-1.733799-5.20343-5.20343-5.203429-8.67306v-3.469631l29.486778-71.114215c1.733799-5.20343 6.937229-6.937229 12.140658-5.203429 3.469631 1.733799 5.20343 5.20343 5.20343 8.67306v3.46963l-29.486779 71.114215c-1.731766 3.467598-5.201397 5.20343-8.671027 5.20343z m502.998869 0c-5.20343 0-8.67306-3.469631-8.67306-8.67306v-26.017148h-26.017148c-5.20343 0-8.67306-3.469631-8.67306-8.67306 0-5.20343 3.469631-8.67306 8.67306-8.67306h26.017148v-52.034296h-8.67306c-5.20343 0-8.67306-3.469631-8.67306-8.67306 0-5.20343 3.469631-8.67306 8.67306-8.67306h8.67306V880.037771l-26.017148-26.017148-60.707355 60.707356v31.220577c0 5.20343-3.469631 8.67306-8.673061 8.673061s-8.67306-3.469631-8.67306-8.673061v-26.017147h-26.017148c-5.20343 0-8.67306-3.469631-8.67306-8.673061 0-5.20343 3.469631-8.67306 8.67306-8.67306h31.220578l60.707356-60.707356-26.017148-26.017148h-22.547517v8.673061c0 5.20343-3.469631 8.67306-8.673061 8.67306s-8.67306-3.469631-8.67306-8.67306v-8.673061h-52.034296v26.017148c0 5.20343-3.469631 8.67306-8.67306 8.67306-5.20343 0-8.67306-3.469631-8.67306-8.67306v-26.017148h-26.017148c-5.20343 0-8.67306-3.469631-8.67306-8.67306 0-5.20343 3.469631-8.67306 8.67306-8.67306h26.017148v-26.017148c0-5.20343 3.469631-8.67306 8.67306-8.67306 5.20343 0 8.67306 3.469631 8.67306 8.67306v26.017148h52.034296v-8.67306c0-5.20343 3.469631-8.67306 8.67306-8.67306s8.67306 3.469631 8.673061 8.67306v8.67306h22.547517l26.017148-26.017148-60.707356-60.707356h-31.220578c-5.20343 0-8.67306-3.469631-8.67306-8.67306s3.469631-8.67306 8.67306-8.67306h26.017148v-26.017148c0-5.20343 3.469631-8.67306 8.67306-8.67306s8.67306 3.469631 8.673061 8.67306v31.220578l60.707355 60.707356 26.017148-26.017148v-22.547518h-8.67306c-5.20343 0-8.67306-3.469631-8.67306-8.67306s3.469631-8.67306 8.67306-8.67306h8.67306v-52.034296h-26.017148c-5.20343 0-8.67306-3.469631-8.67306-8.67306 0-5.20343 3.469631-8.67306 8.67306-8.67306h26.017148v-26.017148c0-5.20343 3.469631-8.67306 8.67306-8.67306s8.67306 3.469631 8.673061 8.67306v26.017148h26.017147c5.20343 0 8.67306 3.469631 8.673061 8.67306 0 5.20343-3.469631 8.67306-8.673061 8.67306h-26.017147v52.034296h8.67306c5.20343 0 8.67306 3.469631 8.67306 8.67306s-3.469631 8.67306-8.67306 8.67306h-8.67306v22.547518l26.017147 26.017148 60.707356-60.707356v-31.220578c0-5.20343 3.469631-8.67306 8.673061-8.67306s8.67306 3.469631 8.67306 8.67306v26.017148h26.017148c5.20343 0 8.67306 3.469631 8.67306 8.67306s-3.469631 8.67306-8.67306 8.67306h-31.220578L853.691537 772.499549l26.017147 26.017148h22.547518v-8.67306c0-5.20343 3.469631-8.67306 8.67306-8.673061s8.67306 3.469631 8.67306 8.673061v8.67306h52.034296v-26.017148c0-5.20343 3.469631-8.67306 8.67306-8.67306s8.67306 3.469631 8.67306 8.67306v26.017148h26.017148c5.20343 0 8.67306 3.469631 8.67306 8.67306 0 5.20343-3.469631 8.67306-8.67306 8.67306h-26.017148v26.017148c0 5.20343-3.469631 8.67306-8.67306 8.67306s-8.67306-3.469631-8.67306-8.67306v-26.017148h-52.034296v8.67306c0 5.20343-3.469631 8.67306-8.67306 8.67306s-8.67306-3.469631-8.67306-8.67306v-8.67306H879.708684l-26.017147 26.017148 60.707356 60.707356h31.220577c5.20343 0 8.67306 3.469631 8.67306 8.67306 0 5.20343-3.469631 8.67306-8.67306 8.67306h-26.017148v26.017148c0 5.20343-3.469631 8.67306-8.67306 8.67306s-8.67306-3.469631-8.67306-8.67306v-31.220577l-60.707356-60.707356-26.017148 26.017148v22.547517h8.67306c5.20343 0 8.67306 3.469631 8.67306 8.67306 0 5.20343-3.469631 8.67306-8.67306 8.67306h-8.67306v52.034296h26.017148c5.20343 0 8.67306 3.469631 8.67306 8.67306 0 5.20343-3.469631 8.67306-8.67306 8.67306h-26.017148v26.017148c0.002033 5.199364-3.467598 8.668995-8.671028 8.668995z m-27.750946-189.059296l27.750946 27.750947 57.237726-57.237726-57.237726-57.237725-57.237725 57.237725 29.486779 29.486779zM511.998984 989.309792c-5.20343 0-8.67306-3.469631-8.67306-8.67306v-138.7588c0-5.20343 3.469631-8.67306 8.67306-8.67306s8.67306 3.469631 8.67306 8.67306v138.7588c0 5.20343-3.469631 8.67306-8.67306 8.67306zM359.365727 888.710831h-3.469631c-3.469631-1.733799-5.20343-5.20343-5.203429-8.67306v-3.469631l26.017148-64.174954c1.733799-5.20343 6.937229-6.937229 12.140658-5.203429 3.469631 1.733799 5.20343 5.20343 5.203429 8.67306v3.469631l-26.017147 64.174953c-1.733799 3.467598-5.201397 5.20343-8.671028 5.20343zM187.652551 854.020623c-1.733799 0-5.20343 0-6.937228-1.733799s-1.733799-3.469631-1.733799-6.937229 0-5.20343 1.733799-6.937228l98.865161-98.865162c3.469631-3.469631 8.67306-3.469631 12.140659 0 1.733799 1.733799 1.733799 3.469631 1.733799 6.937229s0 5.20343-1.733799 6.937228l-98.865162 98.865162c-1.733799 1.733799-3.469631 1.733799-5.20343 1.733799z m324.346433-72.848014c-147.429827 0-268.844539-121.412679-268.844539-268.844539s121.412679-268.844539 268.844539-268.844539S780.843523 364.898243 780.843523 512.32807c0 12.140658 0 24.283349-1.733799 36.424007 0 5.20343-5.20343 8.67306-10.40686 6.937229-5.20343 0-8.67306-5.20343-6.937228-10.406859 1.733799-10.406859 1.733799-22.547517 1.733799-34.690208 0-138.7588-112.741652-251.498419-251.498419-251.498419S260.500565 371.835472 260.500565 510.594271s112.741652 251.498419 251.498419 251.498419c10.406859 0 22.547517 0 32.954376-1.733799 5.20343 0 8.67306 3.469631 10.406859 6.937228 0 5.20343-3.469631 8.67306-6.937228 10.406859-12.140658 3.469631-24.281316 3.469631-36.424007 3.469631zM9.002147 729.138313c-3.469631 0-6.937229-1.733799-8.673061-5.203429v-3.469631c0-3.469631 1.733799-6.937229 5.20343-8.67306l71.114215-29.486778c5.20343-1.733799 8.67306 0 12.140658 5.203429v3.469631c0 3.469631-1.733799 6.937229-5.203429 8.67306L12.469745 729.138313H9.002147z m135.289169-55.503926c-3.469631 0-6.937229-1.733799-8.673061-5.20343v-3.46963c0-3.469631 1.733799-6.937229 5.20343-8.67306l64.174954-26.017148c5.20343-1.733799 8.67306 0 12.140658 5.203429v3.469631c0 3.469631-1.733799 6.937229-5.20343 8.67306l-64.174953 26.017148h-3.467598z m836.016329-152.633257h-138.758799c-5.20343 0-8.67306-3.469631-8.67306-8.67306 0-5.20343 3.469631-8.67306 8.67306-8.67306h138.758799c5.20343 0 8.67306 3.469631 8.673061 8.67306 0 5.20343-3.469631 8.67306-8.673061 8.67306z m-797.858523 0H43.690322c-5.20343 0-8.67306-3.469631-8.67306-8.67306 0-5.20343 3.469631-8.67306 8.67306-8.67306H182.449122c5.20343 0 8.67306 3.469631 8.67306 8.67306 0 5.20343-3.469631 8.67306-8.67306 8.67306z m499.529239-86.724503c-3.469631 0-6.937229-1.733799-6.937229-5.20343-13.87649-27.750947-36.424007-52.034296-62.441155-71.114215-3.469631-3.469631-5.20343-8.67306-1.733799-12.140658 3.469631-3.469631 8.67306-5.20343 12.140658-1.733799 29.486778 19.079919 53.768095 45.097067 69.378384 76.317644 1.733799 3.469631 0 8.67306-3.469631 12.140659-3.467598 1.733799-5.20343 1.733799-6.937228 1.733799z m135.289169-39.891605c-3.469631 0-6.937229-1.733799-8.673061-5.20343v-3.469631c0-3.469631 1.733799-6.937229 5.20343-8.67306l64.174954-26.017148c5.20343-1.733799 8.67306 0 12.140658 5.20343v3.46963c0 3.469631-1.733799 6.937229-5.20343 8.673061l-64.174953 26.017148h-3.467598z m-610.53506 0H203.26284l-64.174954-26.017148c-3.469631-1.733799-5.20343-5.20343-5.20343-8.673061v-3.46963c1.733799-5.20343 6.937229-6.937229 12.140659-5.20343l64.174953 26.017148c3.469631 1.733799 5.20343 5.20343 5.20343 8.67306v3.469631c-1.733799 3.467598-5.20343 5.20343-8.671028 5.20343z m737.151168-52.034296c-3.469631 0-6.937229-1.733799-8.67306-5.20343v-3.46963c0-3.469631 1.733799-6.937229 5.20343-8.673061l71.114215-29.486778c5.20343-1.733799 8.67306 0 12.140658 5.20343v3.46963c0 3.469631-1.733799 6.937229-5.20343 8.67306l-71.114215 29.486779h-3.467598z m-863.769309 0h-3.469631L5.532516 312.863947c-3.469631-1.733799-5.20343-5.20343-5.20343-8.67306v-3.46963c1.733799-5.20343 6.937229-6.937229 12.140659-5.20343l71.114215 29.486778c3.469631 1.733799 5.20343 5.20343 5.203429 8.673061v3.46963c-3.469631 3.467598-5.20343 5.20343-8.67306 5.20343z m671.242415-52.034296c-1.733799 0-5.20343 0-6.937228-1.733799-1.733799-1.733799-1.733799-3.469631-1.733799-6.937229s0-5.20343 1.733799-6.937228l86.724503-84.988672c3.469631-3.469631 8.67306-3.469631 12.140658 0 1.733799 1.733799 1.733799 3.469631 1.733799 6.937228 0 3.469631 0 5.20343-1.733799 6.937229l-86.724503 84.988672c-1.733799 1.733799-3.467598 1.733799-5.20343 1.733799z m-466.57283 0c-1.733799 0-5.20343 0-6.937229-1.733799l-98.865161-98.865162c-1.735832-1.735832-1.735832-3.469631-1.735832-6.939261s0-5.20343 1.733799-6.937229c3.469631-3.469631 8.67306-3.469631 12.140658 0l98.865162 98.865162c1.733799 1.733799 1.733799 3.469631 1.733799 6.937229s0 5.20343-1.733799 6.937228c-1.733799 1.735832-3.467598 1.735832-5.201397 1.735832z m353.833211-74.583846h-3.469631c-3.469631-1.733799-5.20343-5.20343-5.203429-8.67306v-3.46963l26.017148-64.174954c1.733799-5.20343 6.937229-6.937229 12.140658-5.20343 3.469631 1.733799 5.20343 5.20343 5.20343 8.67306V146.354201l-26.017148 64.174954c-1.733799 3.469631-5.20343 5.20343-8.671028 5.203429z m-253.23425 0c-3.469631 0-6.937229-1.733799-8.67306-5.203429L350.692667 146.354201v-3.469631c0-3.469631 1.733799-6.937229 5.203429-8.67306 5.20343-1.733799 8.67306 0 12.140659 5.20343l26.017147 64.174954v3.46963c0 3.469631-1.733799 6.937229-5.203429 8.67306H385.382875z m126.616109-24.281316c-5.20343 0-8.67306-3.469631-8.67306-8.67306V61.365529c0-5.20343 3.469631-8.67306 8.67306-8.67306s8.67306 3.469631 8.67306 8.67306V182.778208c0 5.20343-3.469631 8.67306-8.67306 8.67306zM333.348579 89.116476c-3.469631 0-6.937229-1.733799-8.67306-5.20343L295.190773 12.798831V9.3292c0-3.469631 1.733799-6.937229 5.20343-8.67306 5.20343-1.733799 8.67306 0 12.140658 5.20343l29.486778 71.114215v3.46963c0 3.469631-1.733799 6.937229-5.203429 8.673061-1.735832-1.733799-3.469631 0-3.469631 0z m357.302842 0h-3.469631c-3.469631-1.733799-5.20343-5.20343-5.203429-8.673061v-3.46963L711.465139 5.861602C713.198938 0.658173 718.402368-1.075626 723.605797 0.658173c3.469631 1.733799 5.20343 5.20343 5.20343 8.67306v3.469631L699.322448 83.913046c-1.733799 1.733799-5.20343 5.20343-8.671027 5.20343z" fill="#51565F" p-id="798"></path></svg>