<?xml version="1.0" standalone="no"?><!DOCTYPE svg PUBLIC "-//W3C//DTD SVG 1.1//EN" "http://www.w3.org/Graphics/SVG/1.1/DTD/svg11.dtd"><svg t="1598323494638" class="icon" viewBox="0 0 1137 1024" version="1.1" xmlns="http://www.w3.org/2000/svg" p-id="1211" xmlns:xlink="http://www.w3.org/1999/xlink" width="35.53125" height="32"><defs><style type="text/css"></style></defs><path d="M300.91982 826.050505a98.950856 98.950856 0 1 1-100.316087 98.950856 99.548145 99.548145 0 0 1 100.316087-98.950856z m334.794632 0a98.950856 98.950856 0 1 1-100.742722 98.950856 99.86101 99.86101 0 0 1 100.742722-98.950856zM1137.693083 170.653962H284.423271L142.211635 0H0l398.192579 568.846541h341.307925l-56.884654 85.326982H255.980944l-113.769309 113.769308h597.288869L1137.693083 170.653962z" fill="#7dc5eb" p-id="1212"></path><path d="M341.307925 284.423271h568.846541l-56.884654 56.884654H398.192579l-56.884654-56.884654z m85.326981 113.769308h369.750252l-56.884654 56.884654h-255.980944l-56.884654-56.884654z" fill="#333333" p-id="1213"></path></svg>