<?xml version="1.0" encoding="UTF-8"?>
<svg width="500px" height="500px" viewBox="0 0 500 500" version="1.1" xmlns="http://www.w3.org/2000/svg" xmlns:xlink="http://www.w3.org/1999/xlink">
    <title>工作人员/查看图纸</title>
    <g id="工作人员/查看图纸" stroke="none" stroke-width="1" fill="none" fill-rule="evenodd">
        <g id="编组" transform="translate(176.000000, 107.000000)" fill-rule="nonzero">
            <path d="M107.3,267.23 C107.3,267.23 104.09,278.99 104.6,281.94 C105.11,284.89 112.24,285.39 118.02,285.05 C123.8,284.71 125.15,283.55 125.49,281.92 C125.83,280.29 121.07,273.33 120.89,264.84 L107.3,267.23 Z" id="路径" fill="#122028"></path>
            <path d="M54.88,263.04 C54.88,263.04 46.57,271.71 37.4,272.74 C28.23,273.77 28.07,277.84 29.94,279.71 C31.81,281.58 63.93,282.92 69.51,281.2 C71.72,280.52 67.75,277.01 68.79,265.69 L54.88,263.04 Z" id="路径" fill="#122028"></path>
            <path d="M123.58,241.01 C123.47,256.89 122.94,268.02 121.88,269 C118.11,272.45 112.06,272.46 106.01,270.42 C105.15,270.13 104.22,267.26 103.27,262.62 C102.15,257.23 101,249.45 99.87,240.56 C96.81,216.43 93.95,184.08 92.69,169 C92.25,163.76 92,160.61 92,160.61 C92,160.61 69.95,265.57 68.93,268.28 C67.92,271 48.17,266.56 48.5,260.79 C48.58,259.5 49.69,251.7 51.38,240.35 C52.51,232.69 53.91,223.42 55.39,213.44 C59.76,184.21 65.01,148.93 67.36,130.46 C67.77,127.21 68.09,124.48 68.3,122.4 C69.89,122.86 71.95,123.18 74.35,123.42 C74.89,123.48 75.44,123.53 76.01,123.58 C80.76,123.98 86.58,124.17 92.62,124.62 C102.69,125.35 113.99,122.57 118.6,119.62 C120.25,129.32 121.66,153.14 122.55,179 C123.29,200.61 123.68,223.64 123.58,241.01 Z" id="路径" fill="#2A829A"></path>
            <path d="M52.17,96.08 C44.93,103.16 37.63,107.89 37,105.99 C35.64,101.91 33.76,89.86 33.76,89.86 C34.3,88.8 34.95,87.63 35.71,86.4 C39.83,79.64 46.83,70.64 52.69,63.47 C54.25,61.55 55.73,59.77 57.05,58.2 C60.45,54.15 62.79,51.47 62.79,51.47 L66.84,68.94 C68.66,76.81 60.44,87.98 52.17,96.08 Z" id="路径" fill="#2A829A"></path>
            <path d="M52.17,96.08 C52.46,94.79 53.09,93.34 54.18,91.79 C59.09,84.79 55.94,72.82 56.19,63.52 C56.24,61.43 56.57,59.67 57.06,58.19 C60.46,54.14 62.8,51.46 62.8,51.46 L66.85,68.93 C68.66,76.81 60.44,87.98 52.17,96.08 Z" id="路径" fill="#000000" opacity="0.25"></path>
            <path d="M122.17,63.42 C121.64,67.67 121.04,72.32 120.85,77.2 C120.27,91.98 118.51,112.86 120.55,116.42 C121.11,117.39 120.31,118.51 118.59,119.61 C113.98,122.55 102.68,125.33 92.61,124.61 C86.57,124.16 80.75,123.97 76,123.57 C72.89,123.31 70.25,122.96 68.3,122.4 C66.41,121.85 65.16,121.11 64.8,120.05 C63.5,116.23 74.44,107.31 71.11,95.85 C70.87,95.04 70.61,94.15 70.31,93.21 C66.45,80.83 58.14,58.13 61.3,53.23 C62.3,51.67 64.05,50.16 66.55,48.69 C68.5,47.53 70.91,46.39 73.77,45.26 C79.59,42.94 87.29,40.67 96.86,38.33 C96.86,38.33 106.13,38.57 113.41,40.55 C116.56,41.41 119.32,42.6 120.82,44.24 C124.11,47.89 123.27,54.81 122.17,63.42 Z" id="路径" fill="#2A829A"></path>
            <path d="M113.41,40.57 C102.25,42.46 98.27,57.36 96.42,58.13 C94.26,59.02 88.01,56.24 87.5,57.5 C86.99,58.77 89.28,103.8 88.27,108.38 C87.26,112.97 89.87,117.1 87.82,115.45 C85.78,113.8 87.66,83.74 86.83,72.57 C86.01,61.41 84.81,58.98 83.35,57.5 C81.89,56.03 80.83,60.69 79.55,59.6 C78.27,58.52 77.32,53.56 76.25,48.68 C75.78,46.53 74.76,45.61 73.77,45.26 C79.59,42.94 87.29,40.67 96.86,38.33 C96.86,38.34 106.13,38.58 113.41,40.57 Z" id="路径" fill="#000000" opacity="0.25"></path>
            <path d="M91.05,35.58 C90.98,36.02 90.9,36.58 90.8,37.21 C90.15,41.32 88.85,48.69 87.63,50.93 C87.54,51.09 87.46,51.23 87.37,51.33 C86.9,51.89 86.6,52.55 86.44,53.2 C86.38,53.09 86.31,52.98 86.22,52.86 C85.9,52.42 85.62,51.93 85.34,51.32 C84.61,49.75 83.87,47.42 82.51,43.45 C82.51,43.44 82.51,43.43 82.5,43.43 C82.22,42.43 81.9,41.47 81.51,40.63 C80.83,39.13 79.99,37.96 78.95,37.42 C78.17,37.02 77.63,36.42 77.23,35.77 L77.2,35.71 C77.05,35.47 76.93,35.23 76.82,35 C76.31,33.84 76.23,32.76 76.23,32.76 L81.83,24.71 L82.67,23.5 C82.67,23.5 82.86,23.85 83.19,24.43 C84.64,26.92 88.7,33.74 90.91,35.47 C90.96,35.5 91,35.54 91.05,35.58 Z" id="路径" fill="#FFCCA6"></path>
            <path d="M83.09,26.09 C83.09,26.09 83.09,26.09 83.09,26.09 C82.92,27.14 82.76,28.33 82.67,29.7 C82.63,30.28 82.58,30.86 82.53,31.44 C82.37,33.2 82.11,34.94 81.72,36.49 C81.46,37.5 81.14,38.43 80.75,39.24 C79.3,42.24 76.83,43.53 72.58,40.83 C69.82,39.07 67.59,36.82 65.87,34.65 C64.89,33.42 64.07,32.22 63.41,31.14 C63.12,30.66 62.85,30.21 62.62,29.79 C65.38,29.35 67.65,27.53 68.84,25.64 C71.38,21.56 76.4,28.69 77.45,26.65 C78.51,24.6 79.53,20.7 81.23,22.4 C81.98,23.15 82.53,24.68 83.09,26.09 Z" id="路径" fill="#FFCCA6"></path>
            <path d="M83.33,24.68 C83.25,25.12 83.16,25.58 83.09,26.09 C82.53,24.68 81.98,23.15 81.22,22.4 C79.52,20.71 78.5,24.61 77.44,26.65 C76.38,28.69 71.36,21.56 68.83,25.64 C67.64,27.53 65.37,29.35 62.61,29.79 C61.71,28.17 61.27,27.09 61.27,27.09 L68.39,19.19 C68.64,19.1 75.35,17.91 80.62,18.84 C84.51,19.52 84.05,20.9 83.33,24.68 Z" id="路径" fill="#FFCCA6"></path>
            <path d="M86.49,22.22 C84.97,30.03 86.77,28.84 85.75,29.1 C84.53,29.41 83.79,27.84 83.09,26.1 C83.09,26.09 83.09,26.09 83.09,26.09 C82.53,24.68 81.98,23.15 81.22,22.4 C79.52,20.71 78.5,24.61 77.44,26.65 C76.38,28.69 71.36,21.56 68.83,25.64 C67.64,27.53 65.37,29.35 62.61,29.79 C60,30.21 56.94,29.39 53.96,26.23 C53.3,25.53 52.65,24.72 52.01,23.78 C45.37,14.11 60.99,2.21 70.5,0.67 C80.01,-0.87 78.44,6.41 78.44,6.41 C83.6,5.41 85.98,7.75 86.84,11.33 C87.6,14.48 87.19,18.57 86.49,22.22 Z" id="路径" fill="#020F21"></path>
            <path d="M122.54,178.99 C114.27,152.45 96.49,131.27 85.28,129.96 C76.12,128.89 74.41,125.57 74.34,123.41 C74.88,123.47 75.43,123.52 76,123.57 C80.75,123.97 86.57,124.16 92.61,124.61 C102.68,125.34 113.98,122.56 118.59,119.61 C120.24,129.31 121.64,153.14 122.54,178.99 Z" id="路径" fill="#000000" opacity="0.25"></path>
            <path d="M96.91,53.64 C96.65,54.54 96.43,55.17 96.29,55.39 C95.47,56.67 94.7,55.33 91.25,52.27 C87.82,49.22 87.05,55.9 86.67,56.42 C86.54,56.59 86.38,56.31 86.28,55.77 C86.17,55.15 86.16,54.19 86.43,53.21 C86.6,52.56 86.9,51.9 87.36,51.34 C87.45,51.24 87.53,51.09 87.62,50.94 C88.45,49.42 89.32,45.51 90,41.88 C90.46,39.36 90.84,36.97 91.05,35.59 C91.17,34.84 91.23,34.39 91.23,34.39 C91.23,34.39 94.67,32.92 97.67,35.98 C100.15,38.5 98.14,49.28 96.91,53.64 Z" id="路径" fill="#2A829A"></path>
            <path d="M86.28,55.77 C80.78,51.29 81.6,58.31 80.16,56.47 C79.81,56.03 79.48,55.47 79.2,54.81 C78.31,52.76 77.83,49.72 78.28,45.99 C78.87,41.07 81.62,40.89 81.62,40.89 C81.94,41.8 82.23,42.64 82.49,43.42 C82.5,43.43 82.5,43.44 82.5,43.44 C82.51,43.47 82.52,43.5 82.53,43.54 C83.87,47.45 84.6,49.76 85.33,51.31 C85.62,51.92 85.89,52.42 86.21,52.85 C86.3,52.97 86.37,53.08 86.43,53.19 C87.36,54.8 86.28,55.77 86.28,55.77 Z" id="路径" fill="#2A829A"></path>
            <path d="M47.53,110.39 L11.03,123.84 L5.03,68.83 C5.2,68.32 0.25,44.21 0.25,44.21 L33.69,29.91 L41.86,77.36 L44.91,95.14 L47.53,110.39 Z" id="路径" fill="#DCECEF"></path>
            <polygon id="路径" fill="#C3DCE2" points="7.6 75.92 7.58 58.73 23.87 56.54 25.52 95.52 8.84 95.54"></polygon>
            <path d="M11.75,78.47 C12.39,80.13 11.88,80.76 11.11,82.92 C10.35,85.09 11.25,84.96 10.61,86.49 C9.98,88.02 7.35,90.11 7.35,90.11 C7.35,90.11 6.76,89.75 6,89.06 C4.79,87.96 3.15,86.03 2.84,83.45 C2.33,79.24 4.36,76.91 4.36,76.91 C4.36,76.91 5.95,74.21 8.38,73.17 C8.52,73.11 8.67,73.05 8.81,73 C11.49,72.1 12,73.12 12.38,74.27 C12.76,75.41 11.11,76.81 11.75,78.47 Z" id="路径" fill="#FFCCA6"></path>
            <path d="M120.85,77.2 C120.27,91.98 118.51,112.86 120.55,116.42 C122.59,119.98 106.44,125.6 92.61,124.6 C86.57,124.15 80.75,123.96 76,123.56 C78.78,120.3 84.98,118.68 90.88,117.72 C100.3,116.18 106.78,95.88 111.44,78.86 C114.09,69.19 112.97,51.4 112.97,51.4 L122.18,63.4 C121.64,67.67 121.04,72.32 120.85,77.2 Z" id="路径" fill="#000000" opacity="0.25"></path>
            <path d="M133.09,115.76 C130.77,120.41 128.75,124.48 128.19,126.1 C127.23,128.86 127.71,131.99 127.79,134.33 C127.84,135.74 127.75,136.87 127.11,137.47 C125.42,139.09 125.16,142.31 123.8,142.66 C122.45,143 121.34,145.13 120.54,144.95 C119.74,144.78 118.71,144.02 117.51,139.86 C116.31,135.7 119.75,128.77 119.07,127.92 C118.39,127.07 112.07,128.49 111.52,126.45 C111.41,126.05 111.64,125.69 112.09,125.34 C113.93,123.86 119.54,122.46 120.9,118.63 C121.94,115.69 125,107.22 127.18,101.19 C127.79,99.51 128.33,98.02 128.73,96.89 C129.23,95.51 129.54,94.67 129.54,94.67 L131.62,94.87 L141.76,95.85 C141.96,97.9 137.09,107.72 133.09,115.76 Z" id="路径" fill="#FFCCA6"></path>
            <path d="M144.8,89.06 L128.84,90.78 C128.84,90.78 128.75,90.35 128.55,89.61 C128.34,88.84 128.03,87.73 127.58,86.39 C127.15,85.11 126.6,83.61 125.92,82 C124.31,78.23 121.95,73.83 118.62,70.07 C113.89,64.72 111.05,56.93 111.47,50.61 C111.71,46.7 113.2,43.36 116.24,41.49 C116.24,41.49 126.19,47.67 134.33,58.71 C137.19,62.58 139.82,67.06 141.72,72.08 C144.36,79.04 144.75,85.4 144.8,87.92 C144.82,88.66 144.8,89.06 144.8,89.06 Z" id="路径" fill="#2A829A"></path>
            <path d="M91.99,160.61 C91.99,160.61 69.94,265.57 68.92,268.28 C67.91,271 48.16,266.56 48.49,260.79 C48.57,259.5 49.68,251.7 51.37,240.35 C67.94,229.9 75.64,194.96 80.12,179.03 C85.45,160.09 91.99,160.61 91.99,160.61 Z" id="路径" fill="#000000" opacity="0.25"></path>
            <path d="M123.58,241.01 C123.47,256.89 122.94,268.02 121.88,269 C118.11,272.45 112.06,272.46 106.01,270.42 C105.15,270.13 104.22,267.26 103.27,262.62 C114.49,258.05 120.46,248.61 123.58,241.01 Z" id="路径" fill="#000000" opacity="0.25"></path>
            <path d="M133.09,115.76 C128.67,112.87 127.49,105.46 127.18,101.19 C127.79,99.51 128.33,98.02 128.73,96.89 L131.61,94.87 L141.75,95.85 C141.96,97.9 137.09,107.72 133.09,115.76 Z" id="路径" fill="#000000" opacity="0.25"></path>
            <path d="M144.56,97.9 C142.48,98.41 126.81,97.58 126.66,95.37 C126.51,93.17 125.03,90.21 127.7,89.77 C127.7,89.77 128.01,89.71 128.56,89.62 C131.41,89.13 140.66,87.64 144.8,87.93 C145.88,88 146.61,88.2 146.8,88.56 C147.84,90.59 146.66,97.38 144.56,97.9 Z" id="路径" fill="#BF8C31"></path>
            <path d="M127.11,137.47 C125.42,139.09 125.16,142.31 123.8,142.66 C122.45,143 121.34,145.13 120.54,144.95 C119.74,144.78 118.71,144.02 117.51,139.86 C116.31,135.7 119.75,128.77 119.07,127.92 C118.39,127.07 112.07,128.49 111.52,126.45 C111.41,126.05 111.64,125.69 112.09,125.34 C112.97,125.7 114.41,126.03 116.56,125.72 C120.51,125.15 123.1,124.32 123.23,127.76 C123.35,130.64 124.84,133.56 127.79,134.33 C127.84,135.75 127.74,136.87 127.11,137.47 Z" id="路径" fill="#000000" opacity="0.25"></path>
            <path d="M144.56,97.9 C142.48,98.41 126.81,97.58 126.66,95.37 C126.51,93.17 125.03,90.21 127.7,89.77 C127.7,89.77 128.01,89.71 128.56,89.62 C128.35,88.85 128.04,87.74 127.59,86.4 C135.4,84.29 137.86,73.66 135.91,67.14 C134.75,63.27 134.4,60.49 134.33,58.73 C137.19,62.6 139.82,67.08 141.72,72.1 C144.36,79.06 144.75,85.42 144.8,87.94 C145.88,88.01 146.61,88.21 146.8,88.57 C147.84,90.59 146.66,97.38 144.56,97.9 Z" id="路径" fill="#0A4856"></path>
            <path d="M125.93,82 C124.32,78.23 121.96,73.83 118.63,70.07 C113.9,64.72 111.06,56.93 111.48,50.61 C112.27,51.31 113.07,52.35 113.61,53.86 C115.06,57.93 115.97,61.72 119.99,66.14 C124.49,71.09 128.81,78.44 125.93,82 Z" id="路径" fill="#FFFFFF" opacity="0.25"></path>
            <path d="M70.32,93.21 C66.46,80.83 58.15,58.13 61.31,53.23 C62.31,51.67 64.06,50.16 66.56,48.69 C64.99,50.52 63.1,52.98 63.18,55.25 C63.63,67.01 71.59,83.62 70.32,93.21 Z" id="路径" fill="#000000" opacity="0.25"></path>
            <path d="M91.05,35.58 C90.98,36.02 90.9,36.58 90.8,37.21 C87.24,37.11 83.42,39.33 81.51,40.63 C81.28,40.12 81.03,39.66 80.76,39.24 C81.95,36.78 82.46,33.18 82.68,29.7 C82.81,27.67 83.1,26.02 83.34,24.68 C84.91,27.36 88.78,33.79 90.92,35.46 C90.96,35.5 91,35.54 91.05,35.58 Z" id="路径" fill="#000000" opacity="0.25"></path>
            <path d="M96.91,53.64 C95.87,49.47 96.97,41.09 94.23,40.11 C92.63,39.54 91.12,40.6 90,41.88 C90.46,39.36 90.84,36.97 91.05,35.59 C91.17,34.84 91.23,34.39 91.23,34.39 C91.23,34.39 94.67,32.92 97.67,35.98 C100.15,38.5 98.14,49.28 96.91,53.64 Z" id="路径" fill="#000000" opacity="0.25"></path>
            <path d="M79.15,50.64 C79.14,52.26 79.15,53.66 79.19,54.82 C78.3,52.77 77.82,49.73 78.27,46 C78.86,41.08 81.61,40.9 81.61,40.9 C81.93,41.81 82.22,42.65 82.48,43.43 C82.49,43.44 82.49,43.45 82.49,43.45 C82.5,43.48 82.51,43.51 82.52,43.55 C81.33,44.28 79.2,46.18 79.15,50.64 Z" id="路径" fill="#000000" opacity="0.25"></path>
            <path d="M52.69,63.47 C51.77,65.61 50.53,68.97 49.1,74.14 C46.54,83.39 47.91,94.24 44.91,95.15 L41.86,77.37 C45.3,72.66 49.2,67.75 52.69,63.47 Z" id="路径" fill="#FFFFFF" opacity="0.25"></path>
            <path d="M83.09,26.09 C83.09,26.09 83.09,26.09 83.09,26.09 C82.92,27.14 82.76,28.33 82.67,29.7 C82.63,30.28 82.58,30.86 82.53,31.44 C81.96,28.66 80.97,26.54 80.46,26.6 C79.14,26.78 78.35,29.62 75.5,28.39 C72.65,27.16 71.38,29.2 66.71,30.65 C65.52,31.02 64.4,31.15 63.41,31.14 C63.12,30.66 62.85,30.21 62.62,29.79 C65.38,29.35 67.65,27.53 68.84,25.64 C71.38,21.56 76.4,28.69 77.45,26.65 C78.51,24.6 79.53,20.7 81.23,22.4 C81.98,23.15 82.53,24.68 83.09,26.09 Z" id="路径" fill="#000000" opacity="0.25"></path>
            <path d="M81.72,36.49 C81.46,37.5 81.14,38.43 80.75,39.24 C79.3,42.24 76.83,43.53 72.58,40.83 C69.82,39.07 67.59,36.82 65.87,34.65 C69.61,36.6 75.96,38.95 81.72,36.49 Z" id="路径" fill="#FFFFFF" opacity="0.25"></path>
            <path d="M86.49,22.22 C84.97,30.03 86.77,28.84 85.75,29.1 C84.53,29.41 83.79,27.84 83.09,26.1 C83.09,26.09 83.09,26.09 83.09,26.09 C82.53,24.68 81.98,23.15 81.22,22.4 C79.52,20.71 78.5,24.61 77.44,26.65 C76.38,28.69 71.36,21.56 68.83,25.64 C67.64,27.53 65.37,29.35 62.61,29.79 C60,30.21 56.94,29.39 53.96,26.23 C55.66,26.57 57.58,26.57 59.56,25.81 C65.93,23.39 68.15,14.85 72.83,16.63 C76.11,17.88 81.46,12.62 86.83,11.33 C87.6,14.48 87.19,18.57 86.49,22.22 Z" id="路径" fill="#000000" opacity="0.25"></path>
            <path d="M11.75,78.47 C12.39,80.13 11.88,80.76 11.11,82.92 C10.35,85.09 11.25,84.96 10.61,86.49 C9.98,88.02 7.35,90.11 7.35,90.11 C7.35,90.11 6.76,89.75 6,89.06 C5.38,82.8 10.69,81.47 9.93,81.38 C9.13,81.28 6.49,84.04 6.07,83.7 C4.56,82.49 10.65,79.19 9.86,78.35 C9.07,77.5 6.91,79.71 6.75,79 C6.57,78.29 10.39,75.89 9.8,74.36 C9.59,73.8 9.02,73.42 8.4,73.17 C8.54,73.11 8.69,73.05 8.83,73 C11.51,72.1 12.02,73.12 12.4,74.27 C12.76,75.41 11.11,76.81 11.75,78.47 Z" id="路径" fill="#000000" opacity="0.25"></path>
            <ellipse id="椭圆形" fill="#000000" opacity="0.25" cx="90.07" cy="61.7" rx="1" ry="1"></ellipse>
            <ellipse id="椭圆形" fill="#000000" opacity="0.25" cx="90.83" cy="71.65" rx="1" ry="1"></ellipse>
            <ellipse id="椭圆形" fill="#000000" opacity="0.25" cx="91.6" cy="80.45" rx="1" ry="1"></ellipse>
            <ellipse id="椭圆形" fill="#000000" opacity="0.25" cx="91.98" cy="88.87" rx="1" ry="1"></ellipse>
            <ellipse id="椭圆形" fill="#000000" opacity="0.25" transform="translate(91.618964, 97.632380) rotate(-11.489712) translate(-91.618964, -97.632380) " cx="91.618964" cy="97.63238" rx="1" ry="1"></ellipse>
            <ellipse id="椭圆形" fill="#000000" opacity="0.25" transform="translate(90.848944, 105.283664) rotate(-11.489712) translate(-90.848944, -105.283664) " cx="90.848944" cy="105.283664" rx="1" ry="1"></ellipse>
            <ellipse id="椭圆形" fill="#000000" opacity="0.25" transform="translate(90.848824, 112.933964) rotate(-11.489712) translate(-90.848824, -112.933964) " cx="90.848824" cy="112.933964" rx="1" ry="1"></ellipse>
            <g transform="translate(97.000000, 60.000000)" fill="#C1272D" id="形状">
                <path d="M0.88,1.83 C0.87,1.85 0.85,1.86 0.81,1.86 C0.81,2.3 0.81,2.52 0.81,2.96 C0.81,2.97 0.75,3 0.69,2.99 C0.68,2.99 0.67,2.99 0.66,2.98 C0.66,2.55 0.66,2.34 0.66,1.91 C0.56,2.01 0.44,2.09 0.33,2.14 C0.32,2.13 0.31,2.12 0.3,2.1 C0.51,1.95 0.73,1.65 0.87,1.3 C0.96,1.35 1,1.38 1.09,1.43 C1.08,1.45 1.05,1.47 1,1.45 C0.94,1.56 0.87,1.67 0.79,1.76 C0.83,1.79 0.84,1.8 0.88,1.83 Z M0.33,1.17 C0.32,1.14 0.32,1.12 0.31,1.09 C1.02,1.28 1.38,1.32 2.09,1.33 C2.14,1.27 2.16,1.24 2.21,1.18 C2.21,1.18 2.34,1.28 2.42,1.36 C2.42,1.39 2.39,1.4 2.36,1.4 C1.54,1.41 1.14,1.39 0.33,1.17 Z M2.29,1.8 C2.27,1.82 2.25,1.83 2.2,1.83 C2.1,2.13 1.96,2.39 1.75,2.61 C1.94,2.77 2.18,2.89 2.47,2.96 C2.47,2.97 2.47,2.97 2.47,2.98 C2.4,3 2.35,3.05 2.33,3.12 C2.04,3.02 1.83,2.88 1.66,2.69 C1.46,2.86 1.21,2.98 0.89,3.03 C0.88,3.01 0.88,3.01 0.87,2.99 C1.16,2.92 1.4,2.78 1.58,2.6 C1.45,2.44 1.35,2.24 1.28,2.03 C1.2,2.15 1.11,2.26 1.01,2.34 C1,2.33 0.99,2.32 0.98,2.31 C1.15,2.1 1.31,1.75 1.4,1.38 C1.49,1.42 1.54,1.44 1.63,1.47 C1.62,1.5 1.59,1.51 1.54,1.51 C1.52,1.57 1.49,1.64 1.47,1.7 C1.7,1.72 1.82,1.73 2.05,1.73 C2.09,1.69 2.11,1.67 2.15,1.64 C2.19,1.7 2.23,1.73 2.29,1.8 Z M1.15,0.9 C1.62,1.07 1.51,1.38 1.35,1.25 C1.32,1.14 1.22,0.99 1.12,0.91 C1.13,0.91 1.14,0.9 1.15,0.9 Z M1.42,1.77 C1.38,1.85 1.34,1.92 1.3,1.99 C1.39,2.19 1.5,2.37 1.65,2.52 C1.83,2.32 1.95,2.07 2.03,1.8 C1.79,1.8 1.66,1.79 1.42,1.77 Z M1.46,1.87 C1.9,2.08 1.78,2.34 1.65,2.23 C1.62,2.12 1.52,1.98 1.43,1.89 C1.45,1.88 1.45,1.88 1.46,1.87 Z"></path>
                <path d="M4.73,1.27 C4.71,1.29 4.69,1.3 4.64,1.31 C4.59,1.4 4.49,1.53 4.42,1.61 C4.41,1.6 4.4,1.6 4.39,1.6 C4.41,1.52 4.44,1.4 4.46,1.31 C4.16,1.35 4.02,1.37 3.72,1.4 C3.72,1.64 3.72,1.76 3.72,2.01 C3.72,2.02 3.67,2.06 3.59,2.07 C3.58,2.07 3.58,2.07 3.57,2.07 C3.57,1.81 3.57,1.68 3.57,1.42 C3.3,1.45 3.16,1.46 2.88,1.48 C2.89,1.63 2.83,1.73 2.77,1.77 C2.71,1.81 2.64,1.82 2.61,1.77 C2.59,1.72 2.62,1.67 2.67,1.64 C2.76,1.59 2.82,1.45 2.8,1.31 C2.82,1.31 2.82,1.31 2.84,1.31 C2.85,1.34 2.86,1.38 2.87,1.41 C3.15,1.39 3.29,1.38 3.57,1.35 C3.57,1.26 3.57,1.22 3.57,1.13 C3.29,1.16 3.15,1.17 2.86,1.19 C2.85,1.16 2.85,1.15 2.84,1.12 C3.38,1.09 3.64,1.06 4.18,0.99 C4.22,0.93 4.25,0.9 4.29,0.84 C4.29,0.84 4.41,0.92 4.5,0.98 C4.49,1.01 4.47,1.02 4.44,1.03 C4.15,1.07 4.01,1.09 3.72,1.12 C3.72,1.21 3.72,1.25 3.72,1.34 C4.01,1.31 4.16,1.29 4.45,1.25 C4.49,1.2 4.51,1.18 4.55,1.14 C4.63,1.18 4.66,1.21 4.73,1.27 Z M4.3,1.98 C4.37,2.03 4.41,2.05 4.48,2.1 C4.47,2.12 4.43,2.15 4.38,2.16 C4.38,2.45 4.38,2.59 4.38,2.88 C4.38,2.89 4.3,2.94 4.25,2.95 C4.24,2.95 4.24,2.95 4.23,2.95 C4.23,2.89 4.23,2.87 4.23,2.81 C3.68,2.88 3.41,2.91 2.86,2.95 C2.85,2.92 2.85,2.91 2.84,2.88 C3.39,2.85 3.67,2.81 4.23,2.74 C4.23,2.63 4.23,2.58 4.23,2.47 C3.72,2.54 3.47,2.57 2.97,2.6 C2.96,2.57 2.96,2.56 2.95,2.53 C3.46,2.5 3.72,2.46 4.24,2.4 C4.24,2.3 4.24,2.24 4.24,2.14 C3.72,2.21 3.46,2.24 2.93,2.27 C2.92,2.24 2.92,2.23 2.91,2.2 C3.43,2.17 3.69,2.14 4.21,2.07 C4.24,2.04 4.26,2.02 4.3,1.98 Z M2.92,1.94 C3.12,1.93 3.22,1.92 3.42,1.9 C3.42,1.93 3.42,1.94 3.42,1.97 C3.22,1.99 3.12,2 2.92,2.01 C2.92,1.98 2.92,1.96 2.92,1.94 Z M3.42,1.63 C3.42,1.66 3.42,1.67 3.42,1.7 C3.25,1.72 3.16,1.72 2.99,1.74 C2.99,1.71 2.99,1.7 2.99,1.67 C3.16,1.66 3.25,1.65 3.42,1.63 Z M4.28,1.54 C4.28,1.57 4.28,1.58 4.28,1.61 C4.11,1.63 4.02,1.64 3.85,1.66 C3.85,1.63 3.85,1.62 3.85,1.59 C4.02,1.57 4.11,1.56 4.28,1.54 Z M3.85,1.85 C4.04,1.83 4.14,1.82 4.33,1.79 C4.33,1.82 4.33,1.83 4.33,1.86 C4.14,1.89 4.04,1.9 3.85,1.92 C3.85,1.89 3.85,1.88 3.85,1.85 Z"></path>
                <path d="M5.93,1.56 C5.91,1.58 5.88,1.6 5.84,1.58 C5.78,1.65 5.7,1.72 5.63,1.78 C6,1.89 5.92,2.15 5.78,2.08 C5.73,1.98 5.59,1.87 5.47,1.79 C5.47,2.17 5.47,2.36 5.47,2.74 C5.47,2.75 5.42,2.81 5.35,2.81 C5.34,2.81 5.33,2.81 5.32,2.81 C5.32,2.42 5.32,2.23 5.32,1.84 C5.2,1.98 5.06,2.11 4.92,2.21 C4.91,2.2 4.9,2.2 4.89,2.19 C5.18,1.92 5.47,1.49 5.6,1.15 C5.33,1.18 5.2,1.2 4.93,1.24 C4.92,1.21 4.92,1.2 4.91,1.17 C5.18,1.13 5.32,1.11 5.6,1.08 C5.64,1.04 5.66,1.01 5.7,0.97 C5.77,1.03 5.8,1.06 5.87,1.12 C5.85,1.14 5.82,1.15 5.77,1.16 C5.7,1.32 5.59,1.49 5.46,1.66 C5.46,1.69 5.46,1.7 5.46,1.73 C5.5,1.73 5.53,1.74 5.56,1.75 C5.63,1.67 5.71,1.55 5.77,1.43 C5.84,1.5 5.87,1.52 5.93,1.56 Z M5.19,0.7 C5.67,0.78 5.55,1.13 5.39,1.04 C5.36,0.93 5.25,0.79 5.17,0.72 C5.18,0.71 5.18,0.71 5.19,0.7 Z M7.07,0.84 C7.06,0.86 7.03,0.87 6.97,0.88 C6.95,1.83 6.91,2.39 6.8,2.54 C6.74,2.63 6.64,2.67 6.53,2.68 C6.53,2.63 6.52,2.58 6.49,2.56 C6.46,2.53 6.36,2.52 6.27,2.51 C6.27,2.49 6.27,2.48 6.27,2.47 C6.37,2.47 6.53,2.47 6.58,2.47 C6.63,2.47 6.65,2.46 6.67,2.43 C6.76,2.33 6.8,1.75 6.81,0.87 C6.64,0.88 6.56,0.89 6.39,0.9 C6.34,1.81 6.23,2.4 5.61,2.78 C5.6,2.77 5.59,2.76 5.58,2.75 C6.1,2.37 6.19,1.73 6.23,0.91 C6.06,0.93 5.98,0.94 5.81,0.96 C5.8,0.93 5.8,0.92 5.79,0.89 C6.19,0.84 6.39,0.82 6.8,0.8 C6.84,0.76 6.86,0.74 6.89,0.69 C6.96,0.75 7,0.78 7.07,0.84 Z"></path>
                <path d="M7.5,0.93 C7.5,1.04 7.45,1.12 7.39,1.15 C7.34,1.18 7.27,1.18 7.25,1.13 C7.23,1.09 7.27,1.04 7.31,1.01 C7.38,0.98 7.44,0.88 7.43,0.78 C7.45,0.78 7.45,0.78 7.47,0.78 C7.48,0.81 7.49,0.83 7.49,0.86 C7.78,0.86 7.93,0.87 8.22,0.89 C8.22,0.83 8.22,0.8 8.22,0.75 C7.94,0.72 7.79,0.72 7.51,0.72 C7.5,0.69 7.5,0.68 7.49,0.65 C8.03,0.65 8.29,0.67 8.83,0.76 C8.87,0.72 8.89,0.7 8.94,0.65 C8.94,0.65 9.06,0.76 9.14,0.85 C9.13,0.87 9.11,0.88 9.08,0.87 C8.8,0.81 8.66,0.79 8.37,0.76 C8.37,0.82 8.37,0.85 8.37,0.9 C8.67,0.93 8.82,0.96 9.11,1.02 C9.15,0.99 9.16,0.98 9.2,0.95 C9.27,1.03 9.3,1.07 9.37,1.16 C9.35,1.17 9.33,1.17 9.28,1.16 C9.23,1.21 9.15,1.28 9.08,1.31 C9.07,1.3 9.06,1.3 9.05,1.29 C9.07,1.24 9.1,1.17 9.12,1.1 C8.82,1.03 8.67,1.01 8.37,0.98 C8.37,1.12 8.37,1.18 8.37,1.32 C8.37,1.33 8.32,1.36 8.25,1.35 C8.24,1.35 8.24,1.35 8.23,1.35 C8.23,1.2 8.23,1.12 8.23,0.97 C7.93,0.93 7.79,0.93 7.5,0.93 Z M8.97,1.75 C8.84,1.84 8.67,1.91 8.48,1.96 C8.75,2.05 9.06,2.12 9.39,2.22 C9.39,2.23 9.39,2.24 9.39,2.25 C9.33,2.25 9.29,2.28 9.27,2.35 C8.9,2.23 8.56,2.14 8.28,2.02 C7.97,2.09 7.61,2.13 7.26,2.17 C7.25,2.15 7.25,2.15 7.25,2.13 C7.57,2.08 7.88,2.02 8.14,1.95 C7.96,1.86 7.81,1.75 7.7,1.62 C7.54,1.62 7.46,1.62 7.3,1.62 C7.29,1.59 7.29,1.58 7.28,1.55 C7.96,1.54 8.3,1.55 8.98,1.69 C9.03,1.64 9.05,1.62 9.09,1.57 C9.09,1.57 9.22,1.7 9.3,1.79 C9.29,1.81 9.27,1.82 9.24,1.81 C9.14,1.78 9.08,1.77 8.97,1.75 Z M7.82,2.13 C7.91,2.14 7.95,2.15 8.04,2.17 C8.04,2.2 8.02,2.22 7.96,2.22 C7.96,2.25 7.96,2.26 7.96,2.29 C7.95,2.44 7.85,2.59 7.32,2.67 C7.31,2.66 7.31,2.65 7.3,2.64 C7.72,2.55 7.81,2.42 7.81,2.28 C7.82,2.21 7.82,2.18 7.82,2.13 Z M7.53,1.22 C7.75,1.22 7.86,1.23 8.08,1.24 C8.08,1.27 8.08,1.28 8.08,1.31 C7.86,1.29 7.75,1.29 7.53,1.29 C7.53,1.26 7.53,1.25 7.53,1.22 Z M8.09,1.13 C7.91,1.12 7.81,1.11 7.63,1.11 C7.63,1.08 7.63,1.07 7.63,1.04 C7.81,1.04 7.91,1.05 8.09,1.06 C8.09,1.09 8.09,1.11 8.09,1.13 Z M7.77,1.61 C7.9,1.73 8.09,1.82 8.3,1.89 C8.47,1.84 8.62,1.77 8.73,1.7 C8.34,1.64 8.15,1.63 7.77,1.61 Z M8.13,1.33 C8.52,1.37 8.42,1.65 8.28,1.55 C8.26,1.48 8.18,1.4 8.12,1.35 C8.12,1.34 8.12,1.34 8.13,1.33 Z M8.48,1.28 C8.69,1.31 8.8,1.32 9.01,1.37 C9.01,1.4 9.01,1.41 9.01,1.44 C8.8,1.4 8.69,1.38 8.48,1.35 C8.48,1.32 8.48,1.31 8.48,1.28 Z M8.92,1.18 C8.92,1.21 8.92,1.22 8.92,1.25 C8.74,1.22 8.65,1.2 8.48,1.18 C8.48,1.15 8.48,1.14 8.48,1.11 C8.66,1.13 8.75,1.14 8.92,1.18 Z M8.64,2.2 C8.73,2.22 8.78,2.24 8.87,2.26 C8.87,2.29 8.84,2.31 8.78,2.31 C8.78,2.47 8.78,2.55 8.78,2.71 C8.78,2.73 8.72,2.74 8.67,2.74 C8.66,2.74 8.65,2.74 8.64,2.74 C8.64,2.52 8.64,2.42 8.64,2.2 Z"></path>
            </g>
        </g>
    </g>
</svg>
