<?xml version="1.0" encoding="UTF-8"?>
<svg width="500px" height="500px" viewBox="0 0 500 500" version="1.1" xmlns="http://www.w3.org/2000/svg" xmlns:xlink="http://www.w3.org/1999/xlink">
    <title>工作人员/领导</title>
    <g id="工作人员/领导" stroke="none" stroke-width="1" fill="none" fill-rule="evenodd">
        <g id="编组" transform="translate(69.000000, 105.000000)" fill-rule="nonzero">
            <path d="M284.96,269.48 C287.85,275.99 283.96,283.87 277.86,283.87 L205.55,283.87 C199.45,283.87 195.56,275.98 198.45,269.48 L201.83,261.87 L205.22,254.23 C220.72,219.35 220.78,177.4 205.39,142.47 C205.34,142.34 205.27,142.21 205.22,142.08 L193.34,115.33 L192.06,112.44 L291.35,112.44 L278.18,142.08 C277.75,143.03 277.34,144.01 276.94,144.97 C263.87,176.41 263.08,213.16 274.58,245.24 C275.66,248.28 276.87,251.28 278.18,254.24 L284.96,269.48 Z" id="路径" fill="#381002"></path>
            <path d="M361.45,112.44 C361.45,114.94 360.43,117.2 358.8,118.84 C357.16,120.48 354.89,121.49 352.39,121.49 L131.02,121.49 C126.02,121.49 121.96,117.44 121.96,112.44 C121.96,109.93 122.98,107.67 124.61,106.03 C126.25,104.39 128.52,103.38 131.02,103.38 L352.39,103.38 C357.39,103.38 361.45,107.43 361.45,112.44 Z" id="路径" fill="#491702"></path>
            <path d="M287.34,121.49 L278.19,142.08 C277.76,143.03 277.35,144.01 276.95,144.97 C275.94,144.67 274.9,144.34 273.83,143.98 C233.81,130.25 251.92,232.18 251.92,232.18 C251.92,232.18 252.79,233.64 251.92,238.89 C251.05,244.15 242.28,249.11 234.98,241.52 C227.67,233.92 239.65,152.73 227.67,144.26 C221.68,140.03 212.79,140.72 205.38,142.46 C205.33,142.33 205.26,142.2 205.21,142.07 L196.06,121.48 L287.34,121.48 L287.34,121.49 Z" id="路径" fill="#000000" opacity="0.15"></path>
            <path d="M277.86,283.87 L205.55,283.87 C199.45,283.87 195.56,275.98 198.45,269.48 L201.83,261.87 C203.84,264.5 206.54,266.82 210.16,268.42 C223.18,274.18 264.9,266.29 274.58,245.23 C275.66,248.27 276.87,251.27 278.18,254.23 L284.95,269.48 C287.85,275.98 283.96,283.87 277.86,283.87 Z" id="路径" fill="#000000" opacity="0.15"></path>
            <path d="M361.45,112.44 C361.45,114.94 360.43,117.2 358.8,118.84 C357.16,120.48 354.89,121.49 352.39,121.49 L131.02,121.49 C126.02,121.49 121.96,117.44 121.96,112.44 C121.96,109.93 122.98,107.67 124.61,106.03 C126.25,104.39 128.52,103.38 131.02,103.38 L200.42,103.38 C198.8,105.8 197.84,109.16 201.11,112.44 C206.74,118.07 306.62,122.93 303.77,103.38 L352.39,103.38 C357.39,103.38 361.45,107.43 361.45,112.44 Z" id="路径" fill="#000000" opacity="0.15"></path>
            <g>
                <path d="M138.04,28.27 C137.88,29.58 137.6,31.23 137.17,33.11 C136.47,36.2 135.33,39.92 133.51,43.8 C128.84,53.73 124.46,56.94 121.39,56.07 C118.85,55.34 118.92,53.72 116.17,54.6 C115.61,54.78 114.93,55.07 114.09,55.49 C109.77,57.65 107.77,55.38 107.32,48.6 C108.13,49.25 108.79,49.57 109.22,49.5 C111.06,49.19 113.35,45.24 113.23,42.01 C113.1,38.78 108.97,37.74 112.87,33.84 C116.77,29.95 116.1,38.72 118.1,38.72 C120.11,38.72 119.32,37.01 121.88,35.19 C123.48,34.04 131.75,32.35 138.04,28.27 Z" id="路径" fill="#FFCCA6"></path>
                <path d="M145.33,18.1 C144.98,20.98 143.6,23.36 141.67,25.32 C141.31,25.71 140.91,26.07 140.49,26.43 C139.73,27.09 138.9,27.7 138.04,28.27 C131.75,32.36 123.48,34.05 121.88,35.19 C119.32,37.02 120.11,38.72 118.1,38.72 C116.09,38.72 116.76,29.95 112.87,33.84 C108.97,37.74 113.11,38.77 113.23,42.01 C113.35,45.24 111.07,49.19 109.22,49.5 C108.79,49.57 108.13,49.25 107.32,48.6 C104.67,46.48 100.46,40.84 97.83,34.12 C94.42,25.34 95.45,19.22 98.17,14.75 C99.47,12.61 101.42,11.45 103.12,10.84 C105.03,10.15 106.62,10.13 106.62,10.13 C106.62,10.13 106.58,7.37 109.22,4.78 C110.93,3.11 113.76,1.5 118.46,0.78 C130.39,-1.05 146.79,6.04 145.33,18.1 Z" id="路径" fill="#020F21"></path>
                <path d="M138.04,28.27 C137.88,29.58 137.6,31.23 137.17,33.11 C134.21,33.95 128.39,35.83 124.31,38.54 C119.49,41.76 116.32,49.11 116.17,54.6 C115.61,54.78 114.93,55.07 114.09,55.49 C109.77,57.65 107.77,55.38 107.32,48.6 C108.13,49.25 108.79,49.57 109.22,49.5 C111.06,49.19 113.35,45.24 113.23,42.01 C113.1,38.78 108.97,37.74 112.87,33.84 C116.77,29.95 116.1,38.72 118.1,38.72 C120.11,38.72 119.32,37.01 121.88,35.19 C123.48,34.04 131.75,32.35 138.04,28.27 Z" id="路径" fill="#000000" opacity="0.25"></path>
                <path d="M114.37,63.13 C114.37,63.13 114.99,66.15 114.18,72.57 C113.63,76.97 112.4,82.96 109.85,90.68 C103.56,109.66 97.82,112.34 95.88,121.49 C95.14,124.95 95.47,127.99 96.11,130.79 C96.7,133.34 97.55,135.7 98.13,137.98 C98.57,139.82 98.83,141.6 98.61,143.4 C98.34,145.65 97.77,147.29 96.77,148.41 C94.93,150.52 91.63,150.75 86.15,149.73 C77.77,148.18 56.17,139.22 49.35,140 C47.34,140.23 45.8,139.75 44.63,138.79 C41.83,136.54 41.25,131.6 41.94,127.34 C42.81,121.92 57.5,90.13 66.55,73.7 C67.58,71.83 68.54,70.16 69.39,68.74 C77.76,54.91 92.36,49.59 94.89,49.52 C97.42,49.46 99.56,43.42 99.56,43.42 C99.56,43.42 115.13,53.38 116.8,56.29 C118.46,59.19 114.91,61.38 114.37,63.13 Z" id="路径" fill="#2A829A"></path>
                <polygon id="路径" fill="#E0DCC3" points="180.28 33.48 185.83 80.16 213.28 74.96 208.71 32.61"></polygon>
                <path d="M183.29,75.2 C182.75,75.35 181.61,75.42 179.97,75.49 C174.47,75.72 163.38,75.8 150.77,77.53 C146.76,78.08 142.61,78.78 138.43,79.73 C135.32,80.42 132.2,81.25 129.12,82.22 L137.72,67.16 L138.04,66.6 C138.04,66.6 143.75,66.41 150.92,65.92 C161.41,65.2 175.07,63.84 178.62,61.49 C182.88,58.68 184.63,55.95 185.71,54.98 C186.14,54.57 186.46,54.47 186.8,54.76 C187.97,55.79 184.76,63.08 184.61,66.59 C184.47,70.09 186.66,74.32 183.29,75.2 Z" id="路径" fill="#FFCCA6"></path>
                <path d="M150.77,77.52 C146.76,78.07 142.61,78.77 138.43,79.72 C138.21,79.12 138.07,78.62 138.03,78.27 C137.88,76.83 137.78,71.7 137.71,67.15 L138.03,66.59 C138.03,66.59 143.74,66.4 150.91,65.91 C151.09,69 151.2,73.4 150.77,77.52 Z" id="路径" fill="#000000" opacity="0.25"></path>
                <path d="M95.88,121.49 C95.14,124.95 95.47,127.99 96.11,130.79 C84.75,125.44 94.5,103.6 91.36,88.98 C88,73.41 99.7,61.79 99.7,61.79 L114.19,72.58 C113.64,76.98 112.41,82.97 109.86,90.69 C103.56,109.66 97.82,112.34 95.88,121.49 Z" id="路径" fill="#000000" opacity="0.25"></path>
                <path d="M139.68,81.57 C139.44,82.62 137.84,83.35 135.35,83.81 C130.13,84.77 121.05,84.58 112.91,83.93 C112.09,83.87 111.28,83.79 110.48,83.72 L109.98,80.09 L107.35,60.95 L107.31,60.66 C107.31,60.66 107.36,60.68 107.47,60.7 L107.47,60.71 C108.82,61.03 118.32,63.29 126.13,64.24 C128.23,64.49 130.21,64.65 131.88,64.65 C140.27,64.64 140.46,78.07 139.68,81.57 Z" id="路径" fill="#2A829A"></path>
                <path d="M135.35,83.81 C130.13,84.77 121.05,84.58 112.91,83.93 C111.97,82.74 110.97,81.42 109.98,80.1 C107.3,76.49 104.8,72.81 104.45,71.36 C103.92,69.17 106.02,63.71 107.36,60.96 C107.41,60.87 107.44,60.8 107.49,60.71 C108.84,61.03 118.34,63.29 126.15,64.24 C125.2,65.72 124.22,68.55 126.45,72.47 C128.31,75.75 132.21,80.35 135.35,83.81 Z" id="路径" fill="#2A829A"></path>
                <path d="M131.9,64.64 C131.9,64.64 135.02,74.67 135.6,80.17 C136.18,85.67 141.05,84.01 142.8,83.96 C144.55,83.92 142.42,64.64 138.04,63.47 C133.65,62.3 131.62,63.74 131.9,64.64 Z" id="路径" fill="#0A4856"></path>
                <path d="M120.88,265.03 C121.63,271.06 115.37,283.73 116.06,285.57 C116.76,287.41 118.76,289.35 123.24,289.09 C127.71,288.82 150.77,287.93 158.7,288.05 C166.62,288.18 169.61,284.35 169.67,282.25 C169.68,281.97 169.65,281.73 169.57,281.54 C169.06,280.3 166.35,280.61 156.96,278.27 C146.11,275.57 139.78,269.1 139.78,269.1 L132.57,267.54 L120.88,265.03 Z" id="路径" fill="#122028"></path>
                <path d="M185.78,106.6 C182.91,106.48 174.56,106.46 165.15,106.28 C152.69,106.03 138.39,105.52 132.49,104.14 C131.51,103.9 130.75,103.66 130.29,103.38 L130.13,98.51 L129.85,90.18 L129.7,85.86 C129.7,85.86 130.87,86.2 132.81,86.75 C133.22,86.86 133.67,86.99 134.15,87.12 C142.85,89.58 161.78,94.82 167.23,95.49 C174.38,96.37 190.74,91.69 197.6,97.53 C204.47,103.38 193.08,106.89 185.78,106.6 Z" id="路径" fill="#FFCCA6"></path>
                <path d="M132.92,90.17 C132.67,92.82 131.75,96.08 130.13,98.51 C128.9,100.38 127.26,101.77 125.18,102.06 C124.36,102.18 123.43,102.16 122.42,102.03 C117.28,101.36 110.05,97.64 104.33,92.56 C102.59,91.02 100.99,89.34 99.62,87.6 C93.72,80.03 91.01,76.51 93.93,66.87 C93.93,66.87 96.66,61.52 103.52,60.75 C105.06,60.57 106.83,60.63 108.82,61.03 C119.62,63.23 121.81,76.51 124.45,79.87 C125.12,80.73 125.93,81.35 126.78,81.86 C127.59,82.35 128.44,82.73 129.24,83.12 C130.86,83.93 132.26,84.76 132.77,86.58 C132.79,86.63 132.8,86.69 132.81,86.74 C133.02,87.61 133.06,88.82 132.92,90.17 Z" id="路径" fill="#2A829A"></path>
                <path d="M129.24,83.13 C128.78,83.74 128.14,84.12 127.32,84.23 C119.72,85.23 113.78,70.77 110.67,65.79 C108.3,62.01 104.98,61.01 103.52,60.75 C105.06,60.57 106.83,60.63 108.82,61.03 C119.62,63.23 121.81,76.51 124.45,79.87 C125.77,81.57 127.61,82.33 129.24,83.13 Z" id="路径" fill="#FFFFFF" opacity="0.25"></path>
                <path d="M133,103.38 C132.85,103.66 132.67,103.92 132.49,104.14 C129.92,107.27 124.33,104.94 122.68,104.26 C122.37,104.13 122.31,103.31 122.42,102.03 C122.61,99.69 123.39,95.82 124.27,91.97 C125.19,87.98 126.21,84.03 126.78,81.86 C126.88,81.46 126.97,81.11 127.04,80.85 C127.09,80.67 127.13,80.51 127.16,80.4 C127.16,80.4 131.6,80.01 133,81.39 C133.49,81.87 133.91,84.16 134.15,87.11 C134.24,88.15 134.3,89.26 134.34,90.42 C134.52,95.47 134.2,101.14 133,103.38 Z" id="路径" fill="#0A4856"></path>
                <path d="M165.15,106.28 C152.69,106.03 138.39,105.52 132.49,104.14 C129.92,107.27 124.33,104.94 122.68,104.26 C122.37,104.13 122.31,103.31 122.42,102.03 C117.28,101.36 110.05,97.64 104.33,92.56 C108.46,94 113.89,95.48 117.25,94.71 C119.82,94.13 122.05,92.97 124.27,91.97 C126.07,91.16 127.87,90.43 129.85,90.17 C130.82,90.04 131.83,90.02 132.92,90.16 C133.25,90.2 133.59,90.25 133.94,90.32 C134.08,90.35 134.21,90.38 134.35,90.42 C140.97,92.17 150.9,103.95 164.72,103.86 C169.01,103.84 168.4,104.87 165.15,106.28 Z" id="路径" fill="#000000" opacity="0.25"></path>
                <path d="M43.03,189.27 C33.79,189.27 20.31,185.67 9.45,168.14 C-4.37,145.84 0.64,126.66 4.86,117.21 C9.5,106.81 17.39,98.72 24.06,97.53 L25.18,103.79 C21.86,104.38 15.16,109.74 10.67,119.8 C6.97,128.1 2.59,144.99 14.86,164.79 C30.29,189.69 50.61,181.96 51.47,181.62 L53.86,187.51 C53.75,187.56 49.4,189.27 43.03,189.27 Z" id="路径" fill="#D3D7FF"></path>
                <path d="M33.7,143.92 L33.7,143.92 C23.2,141.58 16.59,131.18 18.93,120.68 L26.88,84.95 C29.22,74.45 39.62,67.84 50.12,70.18 L50.12,70.18 L33.7,143.92 Z" id="路径" fill="#407487"></path>
                <rect id="矩形" fill="#D3D7FF" x="76.41" y="184.57" width="11.29" height="91.22"></rect>
                <path d="M112.81,191 L51.28,191 C47.73,191 44.85,188.12 44.85,184.57 L44.85,184.57 C44.85,181.02 47.73,178.14 51.28,178.14 L112.81,178.14 C116.36,178.14 119.24,181.02 119.24,184.57 L119.24,184.57 C119.24,188.12 116.36,191 112.81,191 Z" id="路径" fill="#407487"></path>
                <path d="M101.52,288.84 L62.58,288.84 L62.58,288.84 C62.58,281.64 68.42,275.79 75.63,275.79 L88.48,275.79 C95.68,275.79 101.52,281.63 101.52,288.84 L101.52,288.84 Z" id="路径" fill="#407487"></path>
                <path d="M143.26,269.65 C141.09,272.09 124.89,270.44 119.24,269.56 C114.18,264.31 109.41,191 105.32,184.58 C101.23,178.16 76.12,183.41 51.29,178.16 C31.16,173.89 40.41,148.3 44.63,138.79 C45.79,139.74 47.34,140.23 49.35,140 C56.16,139.22 77.77,148.18 86.15,149.73 C91.63,150.76 94.94,150.52 96.77,148.41 C97.2,148.66 97.62,148.89 98.04,149.13 C121.45,162.24 144.82,169.37 143.18,182.23 C141.65,194.25 143.31,229.67 143.78,251.58 C144,261.64 143.96,268.86 143.26,269.65 Z" id="路径" fill="#2A829A"></path>
                <path d="M98.6,143.4 C98.33,145.65 97.76,147.29 96.76,148.41 C94.92,150.52 91.62,150.75 86.14,149.73 C77.76,148.18 56.16,139.22 49.34,140 C47.33,140.23 45.79,139.75 44.62,138.79 C41.82,136.54 41.24,131.6 41.93,127.34 C42.8,121.92 57.49,90.13 66.54,73.7 C61.61,86.87 55.65,106.65 59.84,116.63 C65.98,131.29 86.75,146.1 98.1,137.98 C98.56,139.81 98.82,141.59 98.6,143.4 Z" id="路径" fill="#000000" opacity="0.25"></path>
                <path d="M143.26,269.65 C141.09,272.09 124.89,270.44 119.24,269.56 C114.18,264.31 109.41,191 105.32,184.58 C101.23,178.16 76.12,183.41 51.29,178.16 C31.16,173.89 40.41,148.3 44.63,138.79 C45.79,139.74 47.34,140.23 49.35,140 C56.16,139.22 77.77,148.18 86.15,149.73 C91.63,150.76 94.94,150.52 96.77,148.41 C97.2,148.66 97.62,148.89 98.04,149.13 C96.85,152.05 93.62,156.08 84.97,158.88 C69.98,163.75 71.92,175.43 84,175.83 C96.07,176.21 104.24,174.08 109.5,187.51 C114.27,199.7 125.46,244.44 143.77,251.59 C144,261.64 143.96,268.86 143.26,269.65 Z" id="路径" fill="#000000" opacity="0.25"></path>
                <path d="M140.49,26.43 C139.73,27.09 138.9,27.7 138.04,28.27 C131.75,32.36 123.48,34.05 121.88,35.19 C119.32,37.02 120.11,38.72 118.1,38.72 C116.09,38.72 116.76,29.95 112.87,33.84 C108.97,37.74 113.11,38.77 113.23,42.01 C113.35,45.24 111.07,49.19 109.22,49.5 C108.79,49.57 108.13,49.25 107.32,48.6 C104.67,46.48 100.46,40.84 97.83,34.12 C94.42,25.34 95.45,19.22 98.17,14.75 C99.47,12.61 101.42,11.45 103.12,10.84 C101.92,14.71 101.15,20.39 105.52,23.36 C112.53,28.13 119.34,27.74 121.68,29.98 C123.17,31.42 133.32,30.32 140.49,26.43 Z" id="路径" fill="#000000" opacity="0.25"></path>
                <path d="M145.33,18.1 C144.98,20.98 143.6,23.36 141.67,25.32 C144.01,13 138.37,7.67 127.41,3.79 C119.25,0.91 112.39,3.26 109.21,4.78 C110.92,3.11 113.75,1.5 118.45,0.78 C130.39,-1.05 146.79,6.04 145.33,18.1 Z" id="路径" fill="#FFFFFF" opacity="0.25"></path>
                <path d="M183.29,75.2 C182.75,75.35 181.61,75.42 179.97,75.49 C178.24,71.94 182.22,66.06 183.79,63.03 C185.17,60.36 185.59,57.09 185.71,54.97 C186.14,54.56 186.46,54.46 186.8,54.75 C187.97,55.78 184.76,63.07 184.61,66.58 C184.47,70.09 186.66,74.32 183.29,75.2 Z" id="路径" fill="#000000" opacity="0.25"></path>
            </g>
        </g>
    </g>
</svg>